<?xml version="1.0" encoding="UTF-8" standalone="no"?>
<!-- Created with Inkscape (http://www.inkscape.org/) -->

<svg
   version="1.1"
   id="svg2"
   width="81.919998"
   height="81.919998"
   viewBox="0 0 81.919998 81.919998"
   xmlns="http://www.w3.org/2000/svg"
   xmlns:svg="http://www.w3.org/2000/svg">
  <defs
     id="defs6" />
  <g
     id="g8">
    <path
       style="fill:#000000;stroke-width:0.32"
       d="m 40.565055,70.716741 c -20.825354,-0.172288 -28.641146,-0.33689 -29.31849,-0.617456 -1.9573505,-0.810759 -1.9700558,-3.382551 -0.0207,-4.19 0.718205,-0.297491 8.134743,-0.331056 32.452546,-0.146867 l 31.521588,0.238748 v -4.375129 c 0,-4.218531 0.02813,-4.403242 0.785456,-5.160582 0.984327,-0.98433 2.224621,-1.004471 3.177488,-0.0516 0.687302,0.687303 0.747914,1.080148 0.955459,6.192861 0.232327,5.723162 0.114451,6.560726 -1.074265,7.633286 -0.883652,0.797306 -0.421924,0.791584 -38.479081,0.476743 z M 22.734496,56.631765 C 18.745799,55.790213 15.515675,52.976799 14.403302,49.375356 13.804453,47.436508 13.76,46.410405 13.76,34.52629 V 21.759999 h 4 3.999999 v 11.82425 c 0,12.850585 0.163026,14.511827 1.579711,16.097372 1.16055,1.29888 3.777918,1.587354 5.363455,0.591133 1.921686,-1.20743 2.090512,-2.424506 2.257271,-16.272755 l 0.147392,-12.24 h 3.966085 3.966086 l -0.0047,12.08 c -0.0051,13.085382 -0.18417,14.86799 -1.76415,17.564022 -1.10408,1.883968 -3.429741,3.819232 -5.54405,4.613395 -2.067986,0.776762 -6.717315,1.094394 -8.992573,0.614349 z m 17.905503,-0.974861 c 0,-0.29136 5.454035,-18.353484 9.148445,-30.296905 l 1.113574,-3.6 4.868992,3.2e-4 4.868989,3.2e-4 5.084105,16.719674 c 2.796256,9.19582 5.151664,16.899673 5.234237,17.119673 0.115475,0.307667 -0.847658,0.4 -4.172496,0.4 h -4.322624 l -0.897536,-3.68 -0.897536,-3.68 h -5.022464 -5.022464 l -0.897536,3.68 -0.897536,3.68 h -4.094076 c -2.699773,1.3e-5 -4.094074,-0.116832 -4.094074,-0.343082 z m 18.56,-13.058006 c 0,-0.393616 -3.171866,-13.532189 -3.408532,-14.118899 -0.218121,-0.540737 -0.491904,0.415974 -2.495388,8.72 l -1.370397,5.68 h 3.637158 c 2.000439,0 3.637159,-0.126496 3.637159,-0.281101 z M 2.2430043,21.851137 C 1.5965301,21.029279 1.564979,20.692058 1.6597786,15.617571 L 1.76,10.252867 2.6475089,9.3664334 3.5350178,8.4799998 34.80751,8.5925428 c 22.657506,0.081539 31.489672,0.2137703 32.060863,0.48 0.433606,0.2021011 1.009606,0.763457 1.28,1.2474572 0.441504,0.790283 0.441702,0.969245 0.0019,1.755372 -0.269319,0.481454 -0.812746,1.03644 -1.207613,1.233303 -0.520816,0.259656 -8.873478,0.314333 -30.421228,0.19914 L 6.818195,13.349024 6.6090974,14.394512 c -0.1150038,0.575018 -0.2090976,2.304068 -0.2090976,3.842333 0,2.34495 -0.1071593,2.933076 -0.6632255,3.64 -0.9267485,1.178169 -2.5562313,1.16618 -3.49377,-0.02571 z"
       id="path116" />
  </g>
</svg>
