<?xml version="1.0" standalone="no"?>
<!DOCTYPE svg PUBLIC "-//W3C//DTD SVG 20010904//EN"
 "http://www.w3.org/TR/2001/REC-SVG-20010904/DTD/svg10.dtd">
<svg version="1.0" xmlns="http://www.w3.org/2000/svg"
 width="256.000000pt" height="256.000000pt" viewBox="0 0 256.000000 256.000000"
 preserveAspectRatio="xMidYMid meet">
<metadata>
Created by potrace 1.16, written by Peter Selinger 2001-2019
</metadata>
<g transform="translate(0.000000,256.000000) scale(0.100000,-0.100000)"
fill="#000000" stroke="none">
<path d="M0 2145 l0 -75 1280 0 1280 0 0 75 0 75 -1280 0 -1280 0 0 -75z"/>
<path d="M92 1418 c4 -405 6 -417 75 -497 96 -113 320 -143 466 -64 59 32 92
70 126 143 l26 55 3 363 3 362 -110 0 -111 0 0 -320 c0 -353 -6 -408 -50 -452
-23 -23 -37 -28 -77 -28 -58 0 -89 19 -111 69 -14 31 -17 88 -20 384 l-3 347
-110 0 -110 0 3 -362z"/>
<path d="M880 1695 l0 -85 135 0 135 0 0 -385 0 -385 110 0 110 0 0 385 0 385
124 0 c142 0 130 -8 142 103 l6 67 -381 0 -381 0 0 -85z"/>
<path d="M1806 1312 c-76 -251 -141 -463 -143 -469 -4 -10 22 -13 110 -13
l115 0 24 98 24 97 142 3 141 3 10 -38 c6 -21 16 -65 24 -98 l14 -60 117 -3
c93 -2 117 0 114 10 -2 7 -67 219 -143 471 l-139 457 -136 0 -135 0 -139 -458z
m328 79 c25 -107 44 -196 42 -198 -2 -2 -48 -2 -102 -1 l-99 3 48 203 c27 112
53 200 57 195 4 -4 28 -95 54 -202z"/>
<path d="M263 472 l-263 -2 0 -73 0 -74 1263 4 c694 2 1270 3 1280 3 15 0 17
10 17 70 0 60 -3 70 -17 70 -104 3 -2083 4 -2280 2z"/>
</g>
</svg>
